<svg width="101" height="101" viewBox="0 0 101 101" fill="none" xmlns="http://www.w3.org/2000/svg">
<path fill-rule="evenodd" clip-rule="evenodd" d="M85.0994 12.7681C85.0994 13.5808 85.4219 14.3605 85.9978 14.9362C86.5704 15.5087 87.3502 15.8344 88.163 15.8344H98.1271C99.6704 15.8344 100.921 17.0845 100.921 18.6275V75.1684C100.921 76.7113 99.6704 77.9615 98.1271 77.9615H89.0449C87.5016 77.9615 86.2511 76.7113 86.2511 75.1684V17.7524C86.2511 16.9398 85.9287 16.1601 85.3528 15.5843C84.7835 15.002 84.0003 14.6697 83.1843 14.6631H73.2234C71.6801 14.6631 70.4297 13.413 70.4297 11.87V2.80292C70.4297 1.25994 71.6801 0.00976562 73.2234 0.00976562H82.3056C83.849 0.00976562 85.0994 1.25994 85.0994 2.80292V12.7681ZM96.0376 26.9016C96.133 26.8983 96.2219 26.8622 96.291 26.7964H96.2975C96.3601 26.7273 96.3963 26.6384 96.3963 26.543V19.7526C96.3963 19.5486 96.5641 19.3808 96.7681 19.3808H97.9001C98.1041 19.3808 98.2719 19.5486 98.2719 19.7526V26.418C98.2719 26.622 98.1041 26.7898 97.9001 26.7898H96.6398C96.5444 26.7931 96.4555 26.8293 96.3864 26.8951C96.3206 26.9641 96.2811 27.053 96.2811 27.1484V28.4084C96.2811 28.6124 96.1133 28.7802 95.9093 28.7802H94.7773C94.5732 28.7802 94.4054 28.6124 94.4054 28.4084V27.1484C94.4021 27.053 94.3659 26.9641 94.3001 26.8951C94.231 26.8293 94.1422 26.7898 94.0467 26.7898H92.6581C92.5627 26.7931 92.4738 26.8293 92.4047 26.8951C92.3389 26.9641 92.2994 27.053 92.2994 27.1484V28.4084C92.2994 28.6124 92.1316 28.7802 91.9275 28.7802H90.7956C90.5916 28.7802 90.4237 28.6124 90.4237 28.4084V27.1484C90.4204 27.053 90.3842 26.9641 90.3184 26.8951C90.2493 26.8293 90.1605 26.7898 90.0651 26.7898H88.8047C88.6007 26.7898 88.4329 26.622 88.4329 26.418V19.7526C88.4329 19.5486 88.6007 19.3808 88.8047 19.3808H89.9367C90.1407 19.3808 90.3086 19.5486 90.3086 19.7526V26.543C90.3119 26.6384 90.348 26.7273 90.4138 26.7964C90.483 26.8622 90.5718 26.9016 90.6672 26.9016H92.0559C92.1513 26.8983 92.2402 26.8622 92.3093 26.7964C92.3751 26.7273 92.4146 26.6384 92.4146 26.543V19.7526C92.4146 19.5486 92.5824 19.3808 92.7864 19.3808H93.9184C94.1224 19.3808 94.2903 19.5486 94.2903 19.7526V26.543C94.2935 26.6384 94.3297 26.7273 94.3955 26.7964C94.4646 26.8622 94.5535 26.9016 94.6489 26.9016H96.0376ZM94.264 43.0684V44.3646L94.2672 44.3679C94.264 44.4567 94.3002 44.5423 94.3627 44.6081L94.389 44.6344C94.4516 44.6969 94.5371 44.7331 94.6292 44.7331H95.9027C96.0903 44.7331 96.2416 44.8844 96.2416 45.072V49.9081C96.2416 50.0957 96.0903 50.247 95.9027 50.247H94.6194C94.5305 50.2437 94.4417 50.2799 94.3792 50.3457L94.3528 50.372C94.2903 50.4345 94.2541 50.5201 94.2541 50.6122V51.8953C94.2541 52.0828 94.1027 52.2341 93.9152 52.2341H92.7536C92.566 52.2341 92.4146 52.0828 92.4146 51.8953V50.6122C92.4179 50.5234 92.3817 50.4345 92.3159 50.372L92.2896 50.3457C92.2271 50.2832 92.1415 50.247 92.0493 50.247H90.766C90.5785 50.247 90.4271 50.0957 90.4271 49.9081V45.0555C90.4271 44.868 90.5785 44.7166 90.766 44.7166H92.0592C92.1481 44.7199 92.2369 44.6837 92.2994 44.6179L92.3258 44.5916C92.3883 44.5291 92.4245 44.4436 92.4245 44.3515V43.0684C92.4245 42.8808 92.5759 42.7295 92.7634 42.7295H93.925C94.1126 42.7295 94.264 42.8808 94.264 43.0684ZM94.2837 50.3062L94.31 50.2799C94.3725 50.2174 94.4088 50.1319 94.4088 50.0397V44.9535C94.4121 44.8647 94.3758 44.7758 94.31 44.7133L94.2837 44.687C94.2212 44.6245 94.1356 44.5883 94.0435 44.5883H92.6417C92.5528 44.585 92.464 44.6212 92.4015 44.687L92.3751 44.7133C92.3126 44.7758 92.2764 44.8614 92.2764 44.9535V50.0397C92.2731 50.1286 92.3093 50.2174 92.3751 50.2799L92.4015 50.3062C92.464 50.3687 92.5495 50.4049 92.6417 50.4049H94.0435C94.1324 50.4082 94.2212 50.372 94.2837 50.3062ZM94.2409 34.6297L94.208 34.6626C94.1455 34.7251 94.0632 34.758 93.9744 34.758H92.6779C92.4969 34.758 92.3488 34.61 92.3488 34.429V31.4023C92.3488 31.2213 92.2007 31.0733 92.0197 31.0733H90.8351C90.6541 31.0733 90.506 31.2213 90.506 31.4023V40.0976C90.506 40.2785 90.6541 40.4266 90.8351 40.4266H92.0197C92.2007 40.4266 92.3488 40.2785 92.3488 40.0976V36.9261C92.3488 36.7452 92.4969 36.5971 92.6779 36.5971H93.9777C94.0665 36.5971 94.1488 36.6333 94.2113 36.6925L94.2442 36.7254C94.3067 36.7879 94.3396 36.8702 94.3396 36.959V40.0976C94.3396 40.2785 94.4877 40.4266 94.6687 40.4266H95.8533C96.0376 40.4266 96.1824 40.2785 96.1824 40.0976V37.0709C96.1824 36.8899 96.0343 36.7419 95.8533 36.7419H94.5503C94.4614 36.7419 94.3791 36.7057 94.3166 36.6465L94.2837 36.6136C94.2212 36.551 94.1882 36.4688 94.1882 36.38V34.9719C94.1882 34.883 94.2245 34.8008 94.2837 34.7383L94.3166 34.7054C94.3791 34.6429 94.4614 34.61 94.5503 34.61H95.8468C96.031 34.61 96.1758 34.4619 96.1758 34.281V31.399C96.1758 31.2181 96.0277 31.07 95.8468 31.07H94.6621C94.4778 31.07 94.3331 31.2181 94.3331 31.399V34.3961C94.3331 34.485 94.3034 34.5738 94.2409 34.6363V34.6297ZM94.2639 54.9188V56.1755V56.1788C94.2606 56.2742 94.2935 56.3664 94.356 56.4387C94.4251 56.5045 94.514 56.544 94.6094 56.544H95.8665C96.0705 56.544 96.2383 56.7118 96.2383 56.9158V63.7128C96.2383 63.9168 96.0705 64.0845 95.8665 64.0845H94.7509C94.5469 64.0845 94.3791 63.9168 94.3791 63.7128V56.7842C94.3758 56.6888 94.3396 56.5999 94.2738 56.5309C94.2047 56.4651 94.1158 56.4256 94.0204 56.4256H92.635C92.5396 56.4289 92.4507 56.4651 92.3816 56.5309C92.3158 56.5999 92.2764 56.6888 92.2764 56.7842V63.7029C92.2764 63.9069 92.1085 64.0747 91.9045 64.0747H90.789C90.585 64.0747 90.4171 63.9069 90.4171 63.7029V56.9059C90.4171 56.7019 90.585 56.5341 90.789 56.5341H92.046C92.1414 56.5309 92.2303 56.4947 92.2994 56.4289C92.3652 56.3598 92.4047 56.271 92.4047 56.1755V54.9188C92.4047 54.7148 92.5725 54.547 92.7765 54.547H93.8921C94.0961 54.547 94.2639 54.7148 94.2639 54.9188ZM94.3857 68.2628L94.3659 68.243C94.3001 68.1772 94.2639 68.0884 94.2672 67.9963V66.7264C94.2672 66.5356 94.1125 66.3809 93.9217 66.3809H92.7733C92.5824 66.3809 92.4277 66.5356 92.4277 66.7264V67.9963C92.4277 68.0884 92.3915 68.1772 92.329 68.243L92.3093 68.2628C92.2434 68.3286 92.1546 68.3648 92.0625 68.3615H90.7627C90.5718 68.3615 90.4171 68.5161 90.4171 68.7069V75.5335C90.4171 75.7243 90.5718 75.879 90.7627 75.879H91.9111C92.102 75.879 92.2566 75.7243 92.2566 75.5335V72.0429V70.2795L92.3027 70.3256C92.3685 70.3914 92.4047 70.4802 92.4014 70.5723V71.8455C92.4014 72.0363 92.556 72.191 92.7469 72.191H93.8954C94.0862 72.191 94.2409 72.0363 94.2409 71.8455V70.5789C94.2409 70.4868 94.2771 70.3979 94.3396 70.3321L94.3857 70.2861V75.5335C94.3857 75.7243 94.5403 75.879 94.7312 75.879H95.8796C96.0705 75.879 96.2251 75.7243 96.2251 75.5335V68.697C96.2251 68.5062 96.0705 68.3516 95.8796 68.3516H94.6061C94.5239 68.3483 94.4482 68.3154 94.3857 68.2595V68.2628ZM94.3067 70.2367C94.2409 70.3025 94.152 70.3387 94.0599 70.3354H92.6581C92.5659 70.3354 92.4771 70.2992 92.4113 70.2367L92.3882 70.2137C92.3224 70.1479 92.2862 70.0591 92.2895 69.9669V68.5885C92.2895 68.4964 92.3257 68.4075 92.3882 68.3417L92.4113 68.3187C92.4771 68.2529 92.5659 68.2167 92.6581 68.22H94.05C94.1422 68.22 94.231 68.2562 94.2968 68.3187L94.3198 68.3417C94.3857 68.4075 94.4219 68.4964 94.4186 68.5885V69.9867C94.4186 70.0821 94.3758 70.1709 94.3034 70.2367H94.3067Z" fill="#1D2633"/>
<path d="M17.7692 47.2303C18.3451 46.6579 19.1217 46.3388 19.9312 46.3388H44.5782C46.1149 46.3388 47.3621 45.0919 47.3621 43.5555V33.5639C47.3621 32.7579 47.6846 31.9848 48.2539 31.4156C48.8297 30.8432 49.6063 30.524 50.4158 30.524H60.3931C61.9298 30.524 63.177 29.2771 63.177 27.7407V18.6112C63.177 17.0748 61.9298 15.8279 60.3931 15.8279H50.4389C48.7475 15.8279 47.372 14.456 47.372 12.7617V2.78329C47.372 1.24689 46.1248 0 44.5881 0H5.03115C3.46809 0 2.20447 1.26662 2.20447 2.82605V11.8372C2.20447 13.3999 3.47138 14.6632 5.03115 14.6632H45.4568C47.1515 14.6632 48.527 16.0352 48.5303 17.7328V28.5764C48.5303 29.389 48.2078 30.1654 47.6319 30.7379C47.0561 31.3103 46.2795 31.6294 45.47 31.6294H20.8131C19.2764 31.6294 18.0292 32.8763 18.0292 34.4127V44.3977C18.0292 45.207 17.71 45.9802 17.1374 46.5526C16.5649 47.1251 15.7916 47.4442 14.9821 47.4442H4.98507C3.44834 47.4442 2.20117 48.6911 2.20117 50.2275V59.3307C2.20117 60.8671 3.44834 62.114 4.98507 62.114H14.9689C15.7784 62.114 16.5517 62.4331 17.1243 63.0056C17.6969 63.578 18.016 64.3512 18.016 65.1605V75.1422C18.016 76.6786 19.2632 77.9254 20.7999 77.9254H60.3733C61.9364 77.9254 63.2 76.6588 63.2 75.0994V66.1211C63.2 64.5584 61.9331 63.2951 60.3733 63.2951H19.9444C19.1349 63.2951 18.3583 62.976 17.7824 62.4035C17.2131 61.8344 16.8906 61.0612 16.8906 60.2552V49.3819C16.8841 48.5759 17.2033 47.7995 17.7725 47.227L17.7692 47.2303Z" fill="#1D2633"/>
<path d="M89.5945 90.5489L91.6182 89.0586H84.8428V98.0171H91.6182V96.5235H86.7777V94.2304H90.9074V92.74H86.7777V90.5489H89.5945Z" fill="#1D2633"/>
<path d="M79.7326 92.5492H77.3797V90.5489H81.1344L83.1581 89.0586H75.4448V98.0171H79.4825C81.7464 98.0171 83.0462 96.9906 83.0462 95.2042C83.0462 93.4178 81.8682 92.5525 79.7326 92.5525V92.5492ZM79.3969 96.5235H77.3797V94.0396H79.3969C80.6243 94.0396 81.1969 94.4541 81.1969 95.2799C81.1969 96.1056 80.5914 96.5202 79.3969 96.5202V96.5235Z" fill="#1D2633"/>
<path d="M97.1068 89.0586H93.418V98.0171H95.3496V95.4806H97.1035C99.4563 95.4806 100.921 94.2435 100.921 92.2663C100.921 90.289 99.4596 89.0619 97.1035 89.0619L97.1068 89.0586ZM97.064 93.9869H95.3496V90.5489H97.064C98.3013 90.5489 98.9858 91.1609 98.9858 92.2663C98.9858 93.3717 98.3046 93.9836 97.064 93.9836V93.9869Z" fill="#1D2633"/>
<path d="M72.1276 96.0753C71.6308 96.3484 71.0549 96.4931 70.4593 96.4931C68.7153 96.4931 67.4516 95.2496 67.4516 93.5355C67.4516 91.8214 68.7153 90.5778 70.4593 90.5778C71.1174 90.5778 71.7097 90.7621 72.2165 91.1273L73.6019 90.1041L73.5097 90.0251C72.7002 89.3145 71.6176 88.9395 70.3803 88.9395C69.0377 88.9395 67.8202 89.3902 66.9515 90.2127C66.0761 91.0384 65.5957 92.1998 65.5957 93.4861C65.5957 94.7725 66.0761 95.9569 66.9482 96.809C67.8235 97.6644 69.0377 98.1348 70.3704 98.1348C71.7032 98.1348 72.9799 97.6479 73.8059 96.7662C73.1708 96.2957 72.5554 95.845 72.5554 95.845L72.1276 96.0786V96.0753Z" fill="#1D2633"/>
<path d="M61.1202 93.5355C61.1202 93.0815 61.0807 92.634 61.0017 92.2031L59.3992 93.3841C59.3992 93.4335 59.3992 93.4861 59.3992 93.5355C59.3992 96.6905 56.8325 99.26 53.6734 99.26C50.5144 99.26 47.9477 96.6938 47.9477 93.5355C47.9477 90.3772 50.5144 87.811 53.6734 87.811C54.8712 87.811 55.9802 88.1795 56.9016 88.8111L58.3494 87.7452C57.0727 86.7122 55.4438 86.0938 53.6734 86.0938C49.5634 86.0938 46.23 89.4264 46.23 93.5355C46.23 97.6446 49.5634 100.977 53.6734 100.977C57.7835 100.977 61.1169 97.6446 61.1169 93.5355H61.1202Z" fill="#1D2633"/>
<path d="M59.5668 88.9863C59.9189 89.4403 60.2183 89.9371 60.4586 90.4668L53.6765 95.4642L50.8433 93.6876V91.5492L53.6765 93.3258L59.5668 88.9863Z" fill="#1D2633"/>
</svg>
